<svg width="189" height="119" viewBox="0 0 189 119" fill="none" xmlns="http://www.w3.org/2000/svg">
<g filter="url(#filter0_d)">
<rect x="4" width="181" height="111" rx="10" fill="white"/>
</g>
<path d="M54.0469 57.3789H42.7969V69H36.9375V40.5625H55.4531V45.3086H42.7969V52.6523H54.0469V57.3789ZM64.4375 69H58.7734V39H64.4375V69ZM81.7617 66.8516C80.3685 68.5443 78.4414 69.3906 75.9805 69.3906C73.7148 69.3906 71.9831 68.7396 70.7852 67.4375C69.6003 66.1354 68.9948 64.2279 68.9688 61.7148V47.8672H74.6133V61.5195C74.6133 63.7201 75.6159 64.8203 77.6211 64.8203C79.5352 64.8203 80.8503 64.1562 81.5664 62.8281V47.8672H87.2305V69H81.918L81.7617 66.8516ZM98.2461 42.6719V47.8672H101.859V52.0078H98.2461V62.5547C98.2461 63.3359 98.3958 63.8958 98.6953 64.2344C98.9948 64.5729 99.5677 64.7422 100.414 64.7422C101.039 64.7422 101.592 64.6966 102.074 64.6055V68.8828C100.967 69.2214 99.8281 69.3906 98.6562 69.3906C94.6979 69.3906 92.6797 67.3919 92.6016 63.3945V52.0078H89.5156V47.8672H92.6016V42.6719H98.2461ZM111.762 42.6719V47.8672H115.375V52.0078H111.762V62.5547C111.762 63.3359 111.911 63.8958 112.211 64.2344C112.51 64.5729 113.083 64.7422 113.93 64.7422C114.555 64.7422 115.108 64.6966 115.59 64.6055V68.8828C114.483 69.2214 113.344 69.3906 112.172 69.3906C108.214 69.3906 106.195 67.3919 106.117 63.3945V52.0078H103.031V47.8672H106.117V42.6719H111.762ZM128.246 69.3906C125.147 69.3906 122.621 68.4401 120.668 66.5391C118.728 64.638 117.758 62.1055 117.758 58.9414V58.3945C117.758 56.2721 118.168 54.3776 118.988 52.7109C119.809 51.0312 120.967 49.7422 122.465 48.8438C123.975 47.9323 125.694 47.4766 127.621 47.4766C130.512 47.4766 132.784 48.388 134.438 50.2109C136.104 52.0339 136.938 54.6185 136.938 57.9648V60.2695H123.48C123.663 61.6497 124.21 62.7565 125.121 63.5898C126.046 64.4232 127.211 64.8398 128.617 64.8398C130.792 64.8398 132.491 64.0521 133.715 62.4766L136.488 65.582C135.642 66.7799 134.496 67.7174 133.051 68.3945C131.605 69.0586 130.004 69.3906 128.246 69.3906ZM127.602 52.0469C126.482 52.0469 125.57 52.4245 124.867 53.1797C124.177 53.9349 123.734 55.0156 123.539 56.4219H131.391V55.9727C131.365 54.7227 131.026 53.7591 130.375 53.082C129.724 52.3919 128.799 52.0469 127.602 52.0469ZM152.035 53.1602C151.267 53.056 150.59 53.0039 150.004 53.0039C147.868 53.0039 146.469 53.7266 145.805 55.1719V69H140.16V47.8672H145.492L145.648 50.3867C146.781 48.4466 148.35 47.4766 150.355 47.4766C150.98 47.4766 151.566 47.5612 152.113 47.7305L152.035 53.1602Z" fill="black"/>
<defs>
<filter id="filter0_d" x="0" y="0" width="189" height="119" filterUnits="userSpaceOnUse" color-interpolation-filters="sRGB">
<feFlood flood-opacity="0" result="BackgroundImageFix"/>
<feColorMatrix in="SourceAlpha" type="matrix" values="0 0 0 0 0 0 0 0 0 0 0 0 0 0 0 0 0 0 127 0"/>
<feOffset dy="4"/>
<feGaussianBlur stdDeviation="2"/>
<feColorMatrix type="matrix" values="0 0 0 0 0 0 0 0 0 0 0 0 0 0 0 0 0 0 0.25 0"/>
<feBlend mode="normal" in2="BackgroundImageFix" result="effect1_dropShadow"/>
<feBlend mode="normal" in="SourceGraphic" in2="effect1_dropShadow" result="shape"/>
</filter>
</defs>
</svg>
