<svg width="189" height="119" viewBox="0 0 189 119" fill="none" xmlns="http://www.w3.org/2000/svg">
<g filter="url(#filter0_d)">
<rect x="4" width="181" height="111" rx="10" fill="white"/>
</g>
<path d="M47.3477 16.5625L54.6523 37.1875L61.918 16.5625H69.6133V45H63.7344V37.2266L64.3203 23.8086L56.6445 45H52.6211L44.9648 23.8281L45.5508 37.2266V45H39.6914V16.5625H47.3477ZM91.8398 32.6758H80.5898V40.293H93.793V45H74.7305V16.5625H93.7539V21.3086H80.5898V28.0859H91.8398V32.6758ZM113.285 39.1406H103.012L101.059 45H94.8281L105.414 16.5625H110.844L121.488 45H115.258L113.285 39.1406ZM104.594 34.3945H111.703L108.129 23.75L104.594 34.3945ZM147.27 45H141.41L130.004 26.2891V45H124.145V16.5625H130.004L141.43 35.3125V16.5625H147.27V45ZM55.2773 79.3242C52.0612 78.3997 49.7174 77.2669 48.2461 75.9258C46.7878 74.5716 46.0586 72.9049 46.0586 70.9258C46.0586 68.6862 46.9505 66.8372 48.7344 65.3789C50.5312 63.9076 52.862 63.1719 55.7266 63.1719C57.6797 63.1719 59.418 63.5495 60.9414 64.3047C62.4779 65.0599 63.6628 66.1016 64.4961 67.4297C65.3424 68.7578 65.7656 70.2096 65.7656 71.7852H61.9961C61.9961 70.0664 61.4492 68.7188 60.3555 67.7422C59.2617 66.7526 57.7188 66.2578 55.7266 66.2578C53.8776 66.2578 52.4323 66.668 51.3906 67.4883C50.362 68.2956 49.8477 69.4219 49.8477 70.8672C49.8477 72.026 50.3359 73.0091 51.3125 73.8164C52.3021 74.6107 53.9753 75.3398 56.332 76.0039C58.7018 76.668 60.5508 77.4036 61.8789 78.2109C63.2201 79.0052 64.2096 79.9362 64.8477 81.0039C65.4987 82.0716 65.8242 83.3281 65.8242 84.7734C65.8242 87.0781 64.9258 88.9271 63.1289 90.3203C61.332 91.7005 58.9297 92.3906 55.9219 92.3906C53.9688 92.3906 52.1458 92.0195 50.4531 91.2773C48.7604 90.5221 47.4518 89.4935 46.5273 88.1914C45.6159 86.8893 45.1602 85.4115 45.1602 83.7578H48.9297C48.9297 85.4766 49.5612 86.8372 50.8242 87.8398C52.1003 88.8294 53.7995 89.3242 55.9219 89.3242C57.901 89.3242 59.418 88.9206 60.4727 88.1133C61.5273 87.306 62.0547 86.2057 62.0547 84.8125C62.0547 83.4193 61.5664 82.3451 60.5898 81.5898C59.6133 80.8216 57.8424 80.0664 55.2773 79.3242ZM74.9844 65.75V70.8672H78.9297V73.6602H74.9844V86.7656C74.9844 87.612 75.1602 88.25 75.5117 88.6797C75.8633 89.0964 76.4622 89.3047 77.3086 89.3047C77.7253 89.3047 78.2982 89.2266 79.0273 89.0703V92C78.0768 92.2604 77.1523 92.3906 76.2539 92.3906C74.6393 92.3906 73.4219 91.9023 72.6016 90.9258C71.7812 89.9492 71.3711 88.5625 71.3711 86.7656V73.6602H67.5234V70.8672H71.3711V65.75H74.9844ZM96.2148 92C96.0065 91.5833 95.8372 90.8411 95.707 89.7734C94.0273 91.5182 92.0221 92.3906 89.6914 92.3906C87.6081 92.3906 85.8958 91.8047 84.5547 90.6328C83.2266 89.4479 82.5625 87.9505 82.5625 86.1406C82.5625 83.9401 83.3958 82.2344 85.0625 81.0234C86.7422 79.7995 89.099 79.1875 92.1328 79.1875H95.6484V77.5273C95.6484 76.2643 95.2708 75.2617 94.5156 74.5195C93.7604 73.7643 92.6471 73.3867 91.1758 73.3867C89.8867 73.3867 88.806 73.7122 87.9336 74.3633C87.0612 75.0143 86.625 75.8021 86.625 76.7266H82.9922C82.9922 75.6719 83.3633 74.6562 84.1055 73.6797C84.8607 72.6901 85.8763 71.9089 87.1523 71.3359C88.4414 70.763 89.8542 70.4766 91.3906 70.4766C93.8255 70.4766 95.7331 71.0885 97.1133 72.3125C98.4935 73.5234 99.2096 75.1966 99.2617 77.332V87.0586C99.2617 88.9987 99.5091 90.5417 100.004 91.6875V92H96.2148ZM90.2188 89.2461C91.3516 89.2461 92.4258 88.9531 93.4414 88.3672C94.457 87.7812 95.1927 87.0195 95.6484 86.082V81.7461H92.8164C88.3893 81.7461 86.1758 83.0417 86.1758 85.6328C86.1758 86.7656 86.5534 87.651 87.3086 88.2891C88.0638 88.9271 89.0339 89.2461 90.2188 89.2461ZM113.402 89.4414C114.691 89.4414 115.818 89.0508 116.781 88.2695C117.745 87.4883 118.279 86.5117 118.383 85.3398H121.801C121.736 86.5508 121.319 87.7031 120.551 88.7969C119.783 89.8906 118.754 90.763 117.465 91.4141C116.189 92.0651 114.835 92.3906 113.402 92.3906C110.525 92.3906 108.233 91.4336 106.527 89.5195C104.835 87.5924 103.988 84.9622 103.988 81.6289V81.0234C103.988 78.9661 104.366 77.1367 105.121 75.5352C105.876 73.9336 106.957 72.6901 108.363 71.8047C109.783 70.9193 111.456 70.4766 113.383 70.4766C115.753 70.4766 117.719 71.1862 119.281 72.6055C120.857 74.0247 121.697 75.8672 121.801 78.1328H118.383C118.279 76.7656 117.758 75.6458 116.82 74.7734C115.896 73.888 114.75 73.4453 113.383 73.4453C111.547 73.4453 110.121 74.1094 109.105 75.4375C108.103 76.7526 107.602 78.6602 107.602 81.1602V81.8438C107.602 84.2786 108.103 86.1536 109.105 87.4688C110.108 88.7839 111.54 89.4414 113.402 89.4414ZM131.762 82.2148L129.496 84.5781V92H125.883V62H129.496V80.1445L131.43 77.8203L138.012 70.8672H142.406L134.184 79.6953L143.363 92H139.125L131.762 82.2148Z" fill="black"/>
<defs>
<filter id="filter0_d" x="0" y="0" width="189" height="119" filterUnits="userSpaceOnUse" color-interpolation-filters="sRGB">
<feFlood flood-opacity="0" result="BackgroundImageFix"/>
<feColorMatrix in="SourceAlpha" type="matrix" values="0 0 0 0 0 0 0 0 0 0 0 0 0 0 0 0 0 0 127 0"/>
<feOffset dy="4"/>
<feGaussianBlur stdDeviation="2"/>
<feColorMatrix type="matrix" values="0 0 0 0 0 0 0 0 0 0 0 0 0 0 0 0 0 0 0.25 0"/>
<feBlend mode="normal" in2="BackgroundImageFix" result="effect1_dropShadow"/>
<feBlend mode="normal" in="SourceGraphic" in2="effect1_dropShadow" result="shape"/>
</filter>
</defs>
</svg>
