<svg width="189" height="119" viewBox="0 0 189 119" fill="none" xmlns="http://www.w3.org/2000/svg">
<g filter="url(#filter0_d)">
<rect x="4" width="181" height="111" rx="10" fill="white"/>
</g>
<path d="M48.5312 16.5625L55.8359 37.1875L63.1016 16.5625H70.7969V45H64.918V37.2266L65.5039 23.8086L57.8281 45H53.8047L46.1484 23.8281L46.7344 37.2266V45H40.875V16.5625H48.5312ZM93.0234 32.6758H81.7734V40.293H94.9766V45H75.9141V16.5625H94.9375V21.3086H81.7734V28.0859H93.0234V32.6758ZM108.941 34.5898H104.273V45H98.4141V16.5625H108.98C112.34 16.5625 114.931 17.3112 116.754 18.8086C118.577 20.306 119.488 22.4219 119.488 25.1562C119.488 27.0964 119.065 28.7174 118.219 30.0195C117.385 31.3086 116.116 32.3372 114.41 33.1055L120.562 44.7266V45H114.273L108.941 34.5898ZM104.273 29.8438H109C110.471 29.8438 111.611 29.4727 112.418 28.7305C113.225 27.9753 113.629 26.9401 113.629 25.625C113.629 24.2839 113.245 23.2292 112.477 22.4609C111.721 21.6927 110.556 21.3086 108.98 21.3086H104.273V29.8438ZM147.086 45H141.227L129.82 26.2891V45H123.961V16.5625H129.82L141.246 35.3125V16.5625H147.086V45ZM55.7773 79.3242C52.5612 78.3997 50.2174 77.2669 48.7461 75.9258C47.2878 74.5716 46.5586 72.9049 46.5586 70.9258C46.5586 68.6862 47.4505 66.8372 49.2344 65.3789C51.0312 63.9076 53.362 63.1719 56.2266 63.1719C58.1797 63.1719 59.918 63.5495 61.4414 64.3047C62.9779 65.0599 64.1628 66.1016 64.9961 67.4297C65.8424 68.7578 66.2656 70.2096 66.2656 71.7852H62.4961C62.4961 70.0664 61.9492 68.7188 60.8555 67.7422C59.7617 66.7526 58.2188 66.2578 56.2266 66.2578C54.3776 66.2578 52.9323 66.668 51.8906 67.4883C50.862 68.2956 50.3477 69.4219 50.3477 70.8672C50.3477 72.026 50.8359 73.0091 51.8125 73.8164C52.8021 74.6107 54.4753 75.3398 56.832 76.0039C59.2018 76.668 61.0508 77.4036 62.3789 78.2109C63.7201 79.0052 64.7096 79.9362 65.3477 81.0039C65.9987 82.0716 66.3242 83.3281 66.3242 84.7734C66.3242 87.0781 65.4258 88.9271 63.6289 90.3203C61.832 91.7005 59.4297 92.3906 56.4219 92.3906C54.4688 92.3906 52.6458 92.0195 50.9531 91.2773C49.2604 90.5221 47.9518 89.4935 47.0273 88.1914C46.1159 86.8893 45.6602 85.4115 45.6602 83.7578H49.4297C49.4297 85.4766 50.0612 86.8372 51.3242 87.8398C52.6003 88.8294 54.2995 89.3242 56.4219 89.3242C58.401 89.3242 59.918 88.9206 60.9727 88.1133C62.0273 87.306 62.5547 86.2057 62.5547 84.8125C62.5547 83.4193 62.0664 82.3451 61.0898 81.5898C60.1133 80.8216 58.3424 80.0664 55.7773 79.3242ZM75.4844 65.75V70.8672H79.4297V73.6602H75.4844V86.7656C75.4844 87.612 75.6602 88.25 76.0117 88.6797C76.3633 89.0964 76.9622 89.3047 77.8086 89.3047C78.2253 89.3047 78.7982 89.2266 79.5273 89.0703V92C78.5768 92.2604 77.6523 92.3906 76.7539 92.3906C75.1393 92.3906 73.9219 91.9023 73.1016 90.9258C72.2812 89.9492 71.8711 88.5625 71.8711 86.7656V73.6602H68.0234V70.8672H71.8711V65.75H75.4844ZM96.7148 92C96.5065 91.5833 96.3372 90.8411 96.207 89.7734C94.5273 91.5182 92.5221 92.3906 90.1914 92.3906C88.1081 92.3906 86.3958 91.8047 85.0547 90.6328C83.7266 89.4479 83.0625 87.9505 83.0625 86.1406C83.0625 83.9401 83.8958 82.2344 85.5625 81.0234C87.2422 79.7995 89.599 79.1875 92.6328 79.1875H96.1484V77.5273C96.1484 76.2643 95.7708 75.2617 95.0156 74.5195C94.2604 73.7643 93.1471 73.3867 91.6758 73.3867C90.3867 73.3867 89.306 73.7122 88.4336 74.3633C87.5612 75.0143 87.125 75.8021 87.125 76.7266H83.4922C83.4922 75.6719 83.8633 74.6562 84.6055 73.6797C85.3607 72.6901 86.3763 71.9089 87.6523 71.3359C88.9414 70.763 90.3542 70.4766 91.8906 70.4766C94.3255 70.4766 96.2331 71.0885 97.6133 72.3125C98.9935 73.5234 99.7096 75.1966 99.7617 77.332V87.0586C99.7617 88.9987 100.009 90.5417 100.504 91.6875V92H96.7148ZM90.7188 89.2461C91.8516 89.2461 92.9258 88.9531 93.9414 88.3672C94.957 87.7812 95.6927 87.0195 96.1484 86.082V81.7461H93.3164C88.8893 81.7461 86.6758 83.0417 86.6758 85.6328C86.6758 86.7656 87.0534 87.651 87.8086 88.2891C88.5638 88.9271 89.5339 89.2461 90.7188 89.2461ZM113.902 89.4414C115.191 89.4414 116.318 89.0508 117.281 88.2695C118.245 87.4883 118.779 86.5117 118.883 85.3398H122.301C122.236 86.5508 121.819 87.7031 121.051 88.7969C120.283 89.8906 119.254 90.763 117.965 91.4141C116.689 92.0651 115.335 92.3906 113.902 92.3906C111.025 92.3906 108.733 91.4336 107.027 89.5195C105.335 87.5924 104.488 84.9622 104.488 81.6289V81.0234C104.488 78.9661 104.866 77.1367 105.621 75.5352C106.376 73.9336 107.457 72.6901 108.863 71.8047C110.283 70.9193 111.956 70.4766 113.883 70.4766C116.253 70.4766 118.219 71.1862 119.781 72.6055C121.357 74.0247 122.197 75.8672 122.301 78.1328H118.883C118.779 76.7656 118.258 75.6458 117.32 74.7734C116.396 73.888 115.25 73.4453 113.883 73.4453C112.047 73.4453 110.621 74.1094 109.605 75.4375C108.603 76.7526 108.102 78.6602 108.102 81.1602V81.8438C108.102 84.2786 108.603 86.1536 109.605 87.4688C110.608 88.7839 112.04 89.4414 113.902 89.4414ZM132.262 82.2148L129.996 84.5781V92H126.383V62H129.996V80.1445L131.93 77.8203L138.512 70.8672H142.906L134.684 79.6953L143.863 92H139.625L132.262 82.2148Z" fill="black"/>
<defs>
<filter id="filter0_d" x="0" y="0" width="189" height="119" filterUnits="userSpaceOnUse" color-interpolation-filters="sRGB">
<feFlood flood-opacity="0" result="BackgroundImageFix"/>
<feColorMatrix in="SourceAlpha" type="matrix" values="0 0 0 0 0 0 0 0 0 0 0 0 0 0 0 0 0 0 127 0"/>
<feOffset dy="4"/>
<feGaussianBlur stdDeviation="2"/>
<feColorMatrix type="matrix" values="0 0 0 0 0 0 0 0 0 0 0 0 0 0 0 0 0 0 0.25 0"/>
<feBlend mode="normal" in2="BackgroundImageFix" result="effect1_dropShadow"/>
<feBlend mode="normal" in="SourceGraphic" in2="effect1_dropShadow" result="shape"/>
</filter>
</defs>
</svg>
